<svg xmlns="http://www.w3.org/2000/svg" viewBox="0 0 512 512" width="512" height="512">
  <defs>
    <linearGradient id="bg512" x1="0%" y1="0%" x2="100%" y2="100%">
      <stop offset="0%" stop-color="#030712"/>
      <stop offset="100%" stop-color="#0b132b"/>
    </linearGradient>
    <linearGradient id="wave512" x1="0%" y1="0%" x2="100%" y2="100%">
      <stop offset="0%" stop-color="#06b6d4"/>
      <stop offset="50%" stop-color="#3b82f6"/>
      <stop offset="100%" stop-color="#6366f1"/>
    </linearGradient>
  </defs>
  <rect width="512" height="512" rx="112" fill="url(#bg512)"/>
  <rect x="4" y="4" width="504" height="504" rx="108" fill="none" stroke="#06b6d4" stroke-opacity="0.3" stroke-width="8"/>
  <g transform="translate(96, 96)">
    <!-- Wave Icon -->
    <path d="M20 160 C 60 70, 110 70, 160 160 C 210 250, 260 250, 300 160" fill="none" stroke="url(#wave512)" stroke-width="32" stroke-linecap="round"/>
    <circle cx="160" cy="160" r="36" fill="#06b6d4"/>
    <circle cx="160" cy="160" r="16" fill="#ffffff"/>
    <path d="M60 220 C 100 170, 140 170, 160 190 C 180 210, 220 210, 260 220" fill="none" stroke="#6366f1" stroke-width="16" stroke-linecap="round" stroke-opacity="0.7"/>
    <path d="M60 100 C 100 150, 140 150, 160 130 C 180 110, 220 110, 260 100" fill="none" stroke="#06b6d4" stroke-width="16" stroke-linecap="round" stroke-opacity="0.7"/>
  </g>
</svg>
